<svg xmlns="http://www.w3.org/2000/svg" viewBox="0 0 490.651 490.651"><path fill="#84858d;" d="M466.2 237.787L231.533 3.12c-4.16-4.16-10.923-4.16-15.083 0s-4.16 10.923 0 15.083l227.136 227.115-227.135 227.135c-4.16 4.16-4.16 10.923 0 15.083a10.716 10.716 0 007.552 3.115c2.731 0 5.461-1.045 7.531-3.115L466.2 252.869c4.16-4.16 4.16-10.922 0-15.082z"/><path fill="#84858d;" d="M274.2 237.787L39.533 3.12c-4.16-4.16-10.923-4.16-15.083 0s-4.16 10.923 0 15.083l227.136 227.115L24.451 472.453c-4.16 4.16-4.16 10.923 0 15.083a10.716 10.716 0 007.552 3.115c2.731 0 5.461-1.045 7.531-3.115L274.2 252.869c4.16-4.16 4.16-10.922 0-15.082z"/></svg>